<?xml version="1.0" standalone="no"?>
<!DOCTYPE svg PUBLIC "-//W3C//DTD SVG 20010904//EN"
 "http://www.w3.org/TR/2001/REC-SVG-20010904/DTD/svg10.dtd">
<svg version="1.0" xmlns="http://www.w3.org/2000/svg"
 width="1080.000000pt" height="1080.000000pt" viewBox="0 0 1080.000000 1080.000000"
 preserveAspectRatio="xMidYMid meet">
<metadata>
Created by potrace 1.15, written by Peter Selinger 2001-2017
</metadata>
<g transform="translate(0.000000,1080.000000) scale(0.100000,-0.100000)"
fill="#000000" stroke="none">
<path d="M7115 8594 c-186 -19 -457 -23 -462 -6 -5 14 -59 17 -67 3 -3 -4 -77
-11 -163 -15 -254 -10 -343 -20 -343 -38 0 -5 -5 -6 -10 -3 -6 4 -17 2 -24 -4
-7 -6 -26 -12 -42 -13 -35 -3 -171 -93 -238 -158 -34 -34 -49 -57 -52 -81 -2
-18 -9 -38 -14 -43 -12 -12 -13 -26 -2 -26 5 0 16 17 27 38 20 42 32 30 13
-14 -6 -16 -17 -49 -24 -74 l-12 -45 -1 36 c0 19 -6 40 -13 47 -9 9 -17 -1
-35 -45 -29 -72 -29 -91 1 -34 l23 44 11 -74 c6 -41 11 -84 11 -96 0 -48 4
-73 10 -73 10 0 41 -56 41 -75 0 -9 12 -31 26 -48 18 -21 22 -33 14 -35 -7 -3
-23 8 -36 23 -13 16 -24 23 -24 16 0 -7 14 -25 32 -41 17 -16 29 -32 26 -36
-8 -7 -58 25 -58 37 0 5 -7 9 -15 9 -18 0 -18 5 -5 31 6 11 7 19 2 19 -6 0
-12 9 -15 20 -3 11 -11 20 -19 20 -10 0 -9 -3 2 -10 13 -9 13 -11 1 -19 -12
-8 -13 -14 -3 -35 13 -29 10 -31 -19 -16 -25 14 -24 3 1 -24 66 -69 93 -108
81 -116 -10 -6 -9 -10 5 -19 18 -10 18 -10 -2 -11 -12 0 -27 6 -33 13 -6 8
-23 12 -40 9 -24 -3 -27 -7 -18 -17 7 -7 14 -13 17 -13 19 1 23 -4 10 -12 -13
-8 -12 -10 3 -10 9 0 17 -5 17 -11 0 -7 -11 -9 -29 -6 -25 5 -28 3 -24 -13 4
-15 0 -20 -16 -20 -32 0 -25 -15 14 -27 25 -8 35 -8 39 1 3 6 3 -1 0 -16 -4
-19 -2 -28 7 -30 8 0 19 -2 24 -2 15 -2 35 -16 35 -25 0 -9 -31 -8 -48 3 -6 4
-12 4 -12 1 0 -4 -7 1 -16 9 -17 18 -69 22 -59 6 4 -6 10 -8 14 -6 11 7 52
-24 46 -34 -3 -5 -18 -5 -34 0 -36 10 -61 -3 -35 -19 16 -9 17 -12 4 -21 -8
-5 -19 -11 -25 -13 -6 -2 -5 -10 3 -20 11 -13 10 -17 -5 -25 -10 -5 -27 -6
-38 -1 -32 12 -35 10 -24 -15 7 -15 17 -22 26 -19 10 4 14 0 12 -12 -3 -12
-21 -23 -52 -32 -26 -8 -45 -18 -42 -23 8 -14 78 -13 92 1 8 8 13 8 18 0 3 -6
-1 -14 -9 -17 -12 -5 -13 -11 -6 -24 7 -13 7 -21 0 -25 -10 -6 -14 1 -11 20 1
6 -6 0 -16 -11 -10 -12 -26 -26 -37 -31 -17 -9 -16 -11 10 -17 21 -6 31 -3 41
10 11 15 13 15 29 -1 16 -16 16 -20 3 -44 -8 -14 -24 -27 -36 -29 -19 -3 -22
-9 -20 -40 2 -37 -15 -68 -32 -57 -5 3 -12 1 -16 -5 -10 -16 20 -12 59 8 28
13 45 36 82 107 131 250 318 519 338 486 4 -6 15 -2 28 11 14 14 23 18 26 10
4 -13 39 -16 44 -4 2 5 36 6 76 4 53 -3 72 -8 72 -18 0 -16 36 -19 45 -4 11
17 103 12 113 -6 7 -13 28 -18 83 -21 156 -8 155 -8 181 -36 15 -16 36 -27 52
-27 14 0 25 -5 23 -11 -1 -6 4 -14 11 -16 7 -3 12 3 12 13 0 13 3 15 11 7 9
-9 16 -8 27 4 13 13 13 16 1 24 -11 7 -11 9 4 9 9 0 17 -6 17 -12 0 -9 4 -8
10 2 8 13 10 13 10 -2 0 -27 19 -33 115 -33 108 -1 111 -1 153 -42 19 -18 38
-33 42 -33 5 0 19 -22 31 -50 22 -48 41 -62 54 -40 11 17 45 11 69 -12 12 -13
35 -32 50 -43 16 -11 46 -37 69 -57 22 -20 44 -35 49 -32 4 3 8 -4 8 -15 0
-10 5 -21 10 -23 6 -2 12 -14 15 -27 5 -25 91 -111 112 -111 7 0 29 -11 49
-25 20 -14 43 -25 50 -25 8 0 14 -6 14 -13 0 -7 16 -19 35 -27 37 -14 62 -63
52 -100 -3 -11 1 -21 9 -24 8 -3 14 -14 14 -24 0 -11 7 -25 16 -33 13 -10 17
-10 25 2 5 8 9 9 9 3 0 -7 11 -22 25 -35 14 -14 25 -35 25 -50 0 -16 14 -41
35 -64 19 -21 32 -42 29 -46 -2 -5 5 -18 16 -29 15 -15 21 -33 20 -58 -1 -20
-1 -41 0 -47 6 -28 -3 -211 -11 -226 -9 -18 2 -22 134 -45 20 -3 37 -10 37
-14 0 -17 -41 -21 -112 -11 -40 6 -117 17 -172 25 -59 9 -107 11 -120 6 -11
-5 -15 -9 -8 -9 6 -1 12 -6 12 -11 0 -11 -84 -12 -122 -2 -37 9 -16 20 31 16
27 -3 52 0 56 5 8 13 -24 21 -104 25 -38 2 -67 8 -69 14 -2 7 -12 12 -23 12
-12 0 -16 5 -13 15 5 11 -1 15 -25 15 -22 0 -31 5 -31 16 0 16 19 15 64 -2 13
-5 13 -2 3 20 -10 21 -19 26 -48 26 -20 0 -38 2 -41 5 -8 9 3 55 14 55 5 0 6
-4 3 -10 -10 -17 10 -11 25 8 19 22 25 82 8 82 -9 0 -9 3 -1 11 9 9 9 18 -2
38 -17 32 -151 171 -165 171 -6 0 -24 13 -41 29 -46 45 -126 52 -354 31 -81
-7 -149 -18 -162 -26 -13 -8 -50 -14 -90 -14 -71 0 -168 -23 -143 -33 8 -3 -1
-6 -20 -6 -26 -1 -31 2 -20 9 9 6 10 10 3 10 -6 0 -14 -4 -17 -9 -3 -5 -21
-12 -40 -15 -23 -4 -36 -13 -39 -27 -3 -12 -10 -18 -15 -15 -10 6 -88 -28
-112 -50 -9 -7 -54 -17 -100 -22 -103 -12 -120 -11 -120 0 0 5 -13 7 -29 3
-16 -3 -46 -2 -65 4 -22 5 -36 6 -36 0 0 -16 -17 -10 -48 16 -16 13 -31 22
-34 20 -3 -3 -31 4 -63 15 -32 11 -66 20 -77 20 -10 0 -18 5 -18 10 0 6 -12
10 -27 10 -16 0 -72 1 -125 2 -89 3 -98 5 -98 22 0 19 -1 19 -20 1 -12 -10
-18 -25 -15 -32 2 -8 1 -12 -4 -9 -5 3 -14 -1 -21 -9 -7 -8 -16 -12 -21 -9 -5
3 -9 -22 -9 -55 0 -45 5 -66 18 -78 16 -17 128 -59 144 -55 4 1 29 -8 55 -19
41 -18 45 -22 28 -29 l-20 -7 20 -5 c11 -3 -50 -3 -135 0 -174 5 -311 -9 -379
-39 -52 -23 -51 -23 -51 -5 0 7 13 16 29 19 24 5 46 33 137 172 60 92 117 176
126 188 l16 22 11 -27 c6 -16 14 -28 19 -28 10 0 31 58 37 100 3 27 0 33 -26
42 -23 8 -28 14 -23 30 6 20 2 19 -56 -14 -8 -4 -25 -12 -38 -18 -12 -5 -27
-21 -32 -34 -15 -41 -70 -47 -70 -7 0 24 20 41 48 41 22 0 24 3 18 36 -4 19
-3 41 2 47 5 7 12 27 15 45 l7 32 -43 -7 c-23 -4 -57 -8 -74 -7 -28 0 -33 -3
-33 -22 0 -12 -6 -24 -12 -27 -10 -3 -8 -9 5 -24 22 -25 22 -50 -1 -62 -22
-12 -43 4 -35 25 4 11 -2 12 -27 7 -32 -6 -33 -5 -26 20 5 21 3 27 -9 27 -9 0
-18 -7 -21 -15 -4 -8 -13 -15 -21 -15 -12 0 -14 8 -9 34 5 25 3 37 -8 43 -27
15 -24 63 4 63 23 0 25 17 7 42 -9 11 -18 14 -28 7 -8 -5 -17 -9 -21 -9 -13 0
-9 28 5 33 7 3 5 6 -5 6 -9 1 -21 8 -26 17 -8 15 -12 14 -40 -6 -38 -28 -60
-21 -64 22 -3 35 -14 39 -71 23 -25 -6 -28 -5 -26 11 4 28 -41 96 -58 90 -8
-3 -19 -6 -24 -6 -5 0 -9 -7 -9 -15 0 -8 -9 -15 -19 -15 -15 0 -18 5 -14 23 5
19 2 18 -26 -11 -36 -37 -52 -37 -62 -1 l-6 24 -8 -27 c-4 -15 -14 -33 -22
-40 -13 -11 -18 -9 -31 10 -19 29 -38 28 -46 -3 -6 -25 -37 -36 -35 -12 1 21
14 42 27 43 27 2 32 4 32 13 0 5 -13 12 -30 16 -24 5 -30 12 -31 33 l0 27 -10
-25 c-6 -13 -13 -27 -18 -30 -4 -3 -12 -21 -17 -40 -13 -46 -43 -51 -67 -11
-11 19 -15 39 -11 60 5 26 3 31 -13 31 -10 0 -26 -9 -36 -20 -17 -20 -67 -28
-67 -11 0 16 -30 21 -55 9 -14 -6 -25 -17 -25 -25 0 -7 -7 -13 -15 -13 -9 0
-20 -11 -25 -24 -5 -13 -15 -26 -22 -29 -10 -3 -11 -8 0 -26 17 -29 15 -51 -5
-51 -31 1 -53 24 -46 49 5 20 2 22 -22 19 -19 -2 -34 -13 -45 -33 -20 -37 -41
-38 -57 -5 -10 21 -9 38 2 85 7 33 12 62 9 64 -2 3 -17 -5 -32 -16 -27 -21
-35 -48 -18 -71 6 -8 5 -17 -2 -24 -11 -11 -35 -2 -27 11 2 5 -7 6 -20 3 -16
-3 -25 -11 -25 -23 0 -11 -4 -19 -8 -19 -16 0 -54 48 -47 59 8 14 35 14 35 1
0 -5 5 -10 10 -10 6 0 10 6 10 14 0 14 -23 28 -50 30 -8 1 -17 12 -20 26 -9
44 -30 67 -57 62 -18 -3 -26 1 -30 17 -5 20 -10 21 -89 16 -71 -4 -85 -2 -94
13 -9 16 -11 16 -20 0 -6 -10 -16 -18 -21 -18 -6 0 -20 -10 -31 -22 -13 -16
-21 -19 -24 -10 -9 20 -30 14 -48 -13 -9 -13 -22 -22 -30 -19 -8 3 -16 -3 -19
-16 -7 -26 -32 -22 -32 4 0 11 -15 25 -35 35 -27 12 -36 23 -38 46 -2 17 -10
35 -19 42 -13 10 -19 8 -34 -11 -11 -13 -19 -31 -19 -40 0 -23 -24 -30 -60
-17 -29 10 -31 9 -25 -10 4 -11 2 -25 -3 -32 -11 -14 -10 -46 2 -66 14 -23
-10 -36 -39 -21 -21 11 -25 19 -20 42 4 15 2 35 -4 45 -6 10 -11 14 -11 8 0
-5 -5 -53 -11 -105 -13 -122 -13 -111 -4 -144 8 -27 7 -28 -24 -21 -24 5 -31
3 -31 -9 0 -9 -7 -16 -15 -16 -8 0 -15 7 -15 16 0 11 -6 14 -22 8 -51 -16 -68
-24 -68 -34 0 -6 10 -10 23 -8 16 2 22 -2 22 -17 0 -15 -7 -20 -30 -21 -16 0
-40 -4 -52 -8 -12 -4 -24 -2 -28 4 -3 5 -10 10 -14 10 -11 0 -1 -49 10 -56 15
-9 10 -44 -6 -50 -8 -4 -15 -13 -15 -21 0 -10 -6 -13 -18 -8 -9 3 -30 9 -46
12 l-28 6 6 171 c4 94 9 236 11 316 3 80 7 191 10 247 3 61 1 104 -5 108 -6 4
-10 -10 -11 -32 -1 -21 -3 -114 -5 -208 -2 -93 -8 -208 -14 -255 -6 -47 -12
-110 -13 -140 -2 -30 -7 -87 -11 -126 -7 -62 -12 -73 -33 -83 -13 -6 -21 -16
-18 -21 3 -6 -1 -7 -9 -4 -9 3 -16 2 -16 -3 0 -4 -18 -9 -40 -9 -28 -1 -41 3
-45 15 -3 9 -17 21 -31 28 -25 11 -25 11 -19 -17 5 -23 2 -32 -17 -44 -13 -8
-34 -12 -51 -9 -23 5 -27 10 -27 39 0 23 6 37 20 44 16 8 20 8 20 -4 0 -8 -4
-18 -10 -21 -5 -3 -10 -11 -10 -18 0 -6 15 4 32 23 18 19 33 46 33 59 0 13 6
26 13 28 7 3 12 -4 12 -18 0 -22 0 -22 21 -3 20 18 20 19 2 32 -15 12 -15 14
-1 9 9 -3 24 0 34 7 17 13 16 14 -3 25 -18 9 -27 7 -53 -15 -23 -20 -38 -25
-60 -21 -16 4 -30 2 -32 -4 -2 -5 -14 -11 -27 -12 -13 -1 -37 -14 -53 -29 -16
-15 -36 -24 -44 -21 -11 4 -14 -4 -14 -31 0 -20 -4 -36 -10 -36 -5 0 -10 7
-10 15 0 25 -99 114 -121 108 -20 -6 -27 11 -9 22 6 3 10 11 10 16 0 6 -5 7
-12 2 -7 -4 -22 -8 -33 -9 -88 -3 -98 -5 -90 -13 6 -5 26 -13 45 -18 42 -11
45 -32 8 -53 -23 -12 -31 -13 -48 -2 -13 8 -27 9 -38 4 -9 -5 -23 -7 -29 -5
-8 3 -13 -4 -13 -16 0 -12 -8 -24 -17 -27 -10 -3 -26 -10 -37 -15 -13 -7 -16
-7 -11 0 3 6 2 11 -4 11 -20 0 -20 -17 -1 -38 19 -20 18 -52 -1 -52 -5 0 -9
-9 -9 -21 0 -27 -32 -22 -45 9 -5 12 -17 22 -27 22 -9 0 -20 5 -24 11 -7 12
15 31 28 23 4 -3 8 0 8 5 0 6 -18 11 -40 11 -29 0 -42 5 -50 20 -9 17 -7 20
17 26 42 10 49 17 25 25 -16 6 -22 17 -22 39 0 34 -15 40 -25 10 -5 -15 -12
-19 -31 -14 -14 4 -24 2 -24 -5 0 -6 7 -11 16 -11 22 0 13 -34 -10 -38 -13 -3
-17 1 -12 15 3 10 1 24 -3 32 -7 11 -12 6 -18 -20 -7 -27 -15 -35 -37 -37 -28
-4 -29 -3 -22 37 3 24 2 41 -3 41 -5 0 -11 10 -13 22 -2 13 -15 29 -31 36 -15
7 -27 21 -27 32 0 13 -5 17 -20 13 -11 -3 -20 -1 -20 5 0 22 -37 -1 -48 -30
-9 -24 -15 -29 -29 -23 -23 9 -67 15 -59 8 3 -3 -2 -12 -12 -20 -12 -10 -14
-16 -4 -19 6 -3 12 -14 12 -24 0 -10 5 -22 10 -25 19 -12 -1 -24 -35 -23 -29
1 -35 5 -35 23 0 13 7 28 15 35 9 7 13 21 10 31 -4 11 -1 19 6 19 9 0 9 3 -1
15 -6 8 -9 18 -6 23 8 13 56 9 82 -6 18 -9 24 -9 34 3 10 12 9 15 -4 15 -9 0
-16 5 -16 10 0 6 -7 10 -15 10 -8 0 -15 5 -15 10 0 6 -8 10 -18 10 -10 0 -27
7 -38 15 -30 23 -52 19 -47 -9 3 -13 0 -27 -6 -30 -12 -8 -40 42 -38 68 1 10
-8 24 -19 32 -20 14 -21 13 -17 -11 4 -19 1 -25 -12 -25 -12 0 -16 6 -12 20 4
17 1 19 -19 14 -19 -5 -24 -2 -24 12 0 14 -3 15 -12 6 -19 -19 -29 -14 -22 13
5 19 2 25 -10 25 -9 0 -16 7 -16 15 0 13 -7 15 -35 9 -20 -3 -35 -2 -35 3 0
13 -164 22 -177 9 -4 -3 -2 -11 5 -18 8 -8 6 -17 -11 -34 -12 -13 -29 -24 -36
-24 -12 0 -12 3 -3 12 7 7 12 15 12 19 0 12 -49 7 -60 -6 -9 -11 -16 -8 -35
10 -14 12 -25 30 -25 39 0 17 -5 19 -35 7 -11 -5 -20 -17 -20 -31 0 -17 -8
-26 -27 -31 -31 -8 -68 -1 -68 12 0 18 -19 8 -57 -27 -29 -28 -33 -35 -16 -30
15 5 24 2 32 -11 5 -10 13 -15 17 -11 12 13 34 -13 34 -39 0 -29 -25 -57 -44
-50 -7 3 -18 1 -24 -5 -12 -12 -35 -1 -27 13 4 5 15 9 26 9 10 0 19 5 19 10 0
6 7 10 15 10 8 0 15 5 15 11 0 21 -31 34 -70 31 l-40 -4 0 -478 0 -478 22 -6
c13 -3 35 -6 50 -6 38 0 71 -16 164 -77 l80 -53 69 5 c75 6 87 10 56 20 -24 7
-29 35 -7 35 28 0 46 -12 46 -31 0 -11 7 -19 16 -19 8 0 12 5 9 10 -10 16 17
11 29 -5 19 -26 142 -31 207 -9 34 11 84 18 136 19 46 0 83 3 83 7 0 3 18 4
40 1 33 -5 40 -3 40 11 0 9 8 19 18 23 9 3 25 13 34 20 11 10 24 12 40 7 13
-4 43 -8 67 -8 57 -1 70 -26 14 -26 -21 -1 -63 -7 -93 -14 -53 -12 -54 -13
-25 -21 17 -5 39 -9 50 -10 44 -4 161 -6 180 -3 12 2 19 -2 18 -9 -2 -7 3 -13
11 -13 9 0 12 7 9 19 -3 13 2 23 17 31 21 11 37 11 173 -4 16 -2 33 -8 40 -15
8 -8 -3 -11 -44 -11 -57 0 -99 -19 -99 -46 0 -8 8 -14 19 -14 25 0 38 -17 46
-62 6 -31 4 -38 -9 -38 -9 0 -17 -6 -17 -12 -1 -7 -2 -19 -3 -27 0 -8 -7 -16
-15 -19 -10 -3 -12 2 -7 21 4 16 1 29 -6 34 -17 10 -36 51 -40 83 -3 21 -8 25
-32 23 -40 -3 -41 -7 -17 -46 22 -36 19 -47 -12 -47 -20 0 -19 -1 3 -25 13
-14 20 -25 15 -25 -4 0 0 -9 10 -20 28 -31 7 -46 -40 -30 -20 7 -39 9 -42 6
-4 -3 0 -6 8 -6 8 0 31 -12 50 -26 19 -14 44 -30 55 -34 24 -9 87 8 107 30 9
10 9 11 0 6 -7 -4 -13 -2 -13 4 0 18 20 50 31 50 6 0 5 -9 -2 -22 -11 -21 -11
-22 5 -9 10 8 14 21 11 32 -5 14 0 21 16 27 12 5 54 51 94 103 105 138 109
140 325 135 l175 -3 62 40 63 40 0 99 c0 75 3 99 13 95 11 -4 13 -101 2 -164
-4 -27 11 -29 42 -5 19 14 23 28 25 92 2 59 6 75 18 75 12 0 14 -13 12 -69 -3
-68 -3 -69 20 -62 243 72 364 87 675 86 347 -1 395 -11 731 -160 l164 -72 49
55 c60 67 93 80 274 103 192 24 316 13 460 -43 59 -23 170 -18 185 7 50 89 81
121 73 75 -3 -12 2 -35 10 -51 8 -16 20 -71 26 -122 10 -84 42 -211 69 -282
13 -33 87 -100 110 -100 10 0 22 -4 28 -9 5 -5 38 -15 74 -21 100 -19 177 -38
153 -39 -12 -1 -25 -6 -28 -11 -4 -6 -3 -9 2 -8 4 1 17 -3 29 -9 23 -13 191
-1 239 17 69 26 118 84 190 225 68 133 129 215 159 215 22 0 63 -60 70 -103 3
-20 10 -45 14 -55 5 -9 24 -48 42 -87 18 -38 44 -84 57 -102 21 -29 21 -32 5
-36 -13 -4 -11 -5 6 -6 28 -1 63 -36 56 -56 -4 -10 0 -15 13 -15 13 0 19 -7
18 -24 0 -24 -15 -50 -15 -27 0 7 -5 9 -10 6 -8 -5 -8 -11 0 -20 8 -10 8 -15
-1 -20 -6 -4 -15 -1 -20 6 -6 10 -10 8 -17 -10 -13 -36 -4 -65 34 -107 26 -28
37 -35 46 -26 19 19 25 14 20 -18 -6 -42 -44 -70 -85 -64 -35 6 -39 6 -116 -2
-43 -5 -57 -3 -66 10 -19 26 -56 33 -135 25 -94 -8 -159 -26 -186 -50 -11 -11
-29 -19 -40 -19 -28 0 -35 -9 -24 -31 6 -10 6 -20 1 -23 -4 -3 -6 -17 -4 -30
5 -25 27 -41 44 -30 16 10 39 -17 39 -45 0 -15 6 -33 13 -40 6 -6 12 -33 12
-59 0 -50 1 -51 70 -38 11 2 23 4 28 5 4 0 7 7 7 15 0 8 7 16 15 20 8 3 15 1
15 -4 0 -5 9 -12 20 -15 25 -8 27 -45 2 -45 -12 0 -23 -13 -31 -36 -9 -24 -18
-34 -27 -30 -8 3 -14 -1 -14 -8 0 -27 -94 -30 -127 -3 -13 9 -24 8 -120 -14
-67 -15 -83 -9 -78 31 5 38 -28 74 -76 84 -19 3 -29 11 -26 18 2 7 -6 27 -18
44 -21 27 -29 60 -26 105 1 17 56 79 69 79 5 0 23 13 41 29 29 26 32 35 36
101 4 73 15 100 60 150 33 37 39 60 15 60 -11 0 -20 -7 -20 -15 0 -9 -12 -18
-30 -21 -21 -5 -30 -12 -30 -25 0 -11 -4 -19 -9 -19 -5 0 -19 -11 -32 -25 -13
-13 -31 -25 -39 -25 -28 -1 -44 -18 -46 -50 -1 -19 -11 -38 -23 -46 -12 -9
-21 -25 -21 -36 0 -12 -3 -18 -7 -15 -11 12 -43 -25 -43 -50 0 -14 -4 -21 -10
-18 -6 4 -8 9 -6 13 6 10 -16 27 -40 30 -18 2 -23 -4 -28 -33 -4 -19 -11 -35
-16 -35 -5 0 -28 21 -52 47 -24 25 -51 55 -60 65 -10 10 -18 23 -18 28 0 6 -7
10 -15 10 -9 0 -12 6 -9 18 5 14 4 15 -5 2 -9 -13 -21 -10 -83 23 -78 40 -94
44 -100 25 -3 -8 -14 -6 -36 8 -30 17 -31 19 -11 26 11 4 17 12 14 18 -4 6
-11 8 -16 4 -5 -3 -17 0 -25 7 -19 16 -30 4 -14 -16 16 -20 0 -19 -29 1 -19
14 -25 14 -31 3 -6 -8 0 -17 18 -26 28 -14 122 -111 122 -126 0 -5 5 -5 12 -1
8 5 9 2 5 -10 -4 -9 -3 -15 1 -12 20 12 202 -209 206 -249 2 -14 -1 -25 -5
-25 -5 0 -9 10 -9 21 0 18 -2 19 -15 9 -8 -7 -15 -23 -15 -37 0 -13 -4 -22 -9
-18 -13 8 -54 -52 -45 -66 4 -7 -1 -18 -11 -26 -11 -7 -14 -13 -7 -13 6 0 9
-7 6 -15 -5 -13 -9 -13 -23 -3 -14 12 -15 11 -2 -4 11 -15 11 -23 1 -48 -15
-36 -26 -38 -33 -8 -6 20 -7 21 -24 6 -17 -16 -22 -18 -40 -18 -4 0 2 -7 13
-15 26 -18 47 -65 42 -96 -3 -22 -4 -22 -20 -5 -15 15 -18 15 -18 2 0 -10 -6
-13 -16 -9 -13 5 -14 0 -9 -31 6 -28 4 -36 -7 -36 -32 0 -37 -21 -18 -72 14
-36 16 -57 9 -80 -6 -22 -5 -36 4 -47 8 -10 8 -12 1 -8 -7 4 -15 0 -18 -9 -9
-24 -7 -27 10 -10 8 9 21 16 28 16 7 0 26 24 41 53 27 51 34 91 39 237 1 25 8
56 16 70 7 14 18 34 24 45 37 68 70 105 92 105 13 0 24 -1 24 -3 0 -1 -20 -24
-45 -51 -44 -49 -63 -96 -52 -136 3 -11 1 -18 -3 -15 -5 3 -12 -11 -16 -32 -5
-29 -2 -46 14 -74 12 -21 29 -59 38 -86 33 -97 117 -203 162 -203 10 0 28 -7
40 -16 12 -8 22 -11 22 -5 0 5 -5 11 -11 13 -7 2 0 12 15 21 22 15 26 15 26 2
0 -8 -4 -15 -10 -15 -5 0 -10 -9 -10 -20 0 -11 -4 -20 -9 -20 -5 0 -11 -9 -14
-20 -3 -11 -1 -20 4 -20 5 0 9 6 10 13 1 29 41 -82 44 -123 3 -57 5 -61 15
-30 l8 25 12 -32 c6 -18 17 -30 22 -27 6 4 14 1 18 -7 6 -8 11 -1 15 22 6 33
-4 138 -24 259 -14 82 -21 301 -10 295 5 -4 9 -11 9 -16 0 -9 61 -144 95 -209
32 -62 55 -159 61 -254 12 -224 34 -289 125 -377 51 -49 52 -59 9 -59 -57 0
-90 -12 -90 -32 0 -14 5 -18 18 -14 9 2 45 12 79 22 l63 16 35 -31 c20 -17 54
-43 75 -56 33 -21 65 -62 72 -92 1 -5 19 -38 40 -75 21 -37 38 -81 38 -98 0
-23 4 -30 20 -30 11 0 20 -5 20 -11 0 -6 -7 -9 -15 -5 -11 4 -15 -2 -15 -22 1
-25 2 -25 14 -9 30 40 54 14 62 -67 2 -22 8 -42 13 -45 5 -4 13 -20 17 -36 4
-17 9 -34 12 -38 2 -5 5 -29 6 -53 1 -31 8 -50 24 -64 21 -19 27 -37 23 -68
-1 -7 5 -15 14 -18 21 -8 19 -21 -5 -29 -11 -4 -18 -11 -15 -16 3 -5 -1 -6 -9
-3 -11 4 -16 0 -16 -10 0 -9 -4 -16 -10 -16 -5 0 -7 -7 -4 -15 4 -8 1 -15 -5
-15 -6 0 -11 5 -11 11 0 5 -4 7 -10 4 -5 -3 -10 -23 -10 -43 0 -33 4 -39 32
-50 23 -8 34 -9 39 -1 5 8 8 8 13 0 4 -6 17 -16 29 -22 18 -9 20 -9 10 2 -7 7
-13 17 -13 23 0 5 8 -1 19 -12 10 -12 21 -19 24 -16 3 3 10 -4 17 -15 12 -23
35 -18 26 5 -5 14 3 14 57 -1 16 -4 32 -3 40 3 6 6 33 9 59 7 l46 -3 -1 33
c-2 23 -6 31 -16 27 -9 -3 -12 -1 -7 6 8 13 -7 22 -48 26 -15 2 -34 13 -42 24
-14 20 -14 22 5 22 12 0 21 7 21 15 0 11 -5 12 -25 5 -14 -5 -24 -6 -24 -2 5
31 -2 51 -17 45 -10 -4 -15 -1 -14 8 1 8 2 26 1 42 -1 22 -6 27 -26 27 -14 0
-25 5 -25 10 0 6 5 10 12 10 6 0 4 6 -7 13 -26 19 -14 68 16 62 12 -3 23 3 27
13 4 9 13 17 21 17 8 0 19 13 24 29 5 16 18 37 29 48 10 10 16 23 13 29 -9 14
36 48 65 49 14 0 40 -4 58 -9 24 -7 32 -7 32 4 0 7 6 15 14 18 8 3 20 18 28
34 12 24 18 28 51 25 37 -4 51 11 22 22 -17 6 -19 15 -6 35 6 10 13 10 29 2
15 -8 24 -6 41 8 12 10 35 24 51 31 17 7 30 17 30 22 0 5 5 6 10 3 6 -3 10 1
10 9 0 12 10 16 35 16 19 0 35 4 35 10 0 5 -5 9 -12 7 -22 -4 -19 28 4 38 13
6 22 17 21 25 -2 9 13 24 32 35 21 11 34 24 31 32 -4 8 3 13 18 13 13 0 26 6
29 14 3 8 24 17 46 21 40 7 53 19 29 28 -19 6 -3 19 26 21 14 0 26 6 26 12 0
7 16 24 35 38 19 15 35 34 35 42 0 7 4 14 9 14 5 0 19 11 32 25 13 13 29 25
34 25 6 0 16 20 23 45 7 25 16 45 22 45 6 0 6 9 0 26 -6 14 -10 38 -10 54 0
16 -4 32 -10 35 -5 3 -10 17 -10 30 0 13 -4 27 -10 30 -5 3 -10 15 -10 26 0
10 -4 19 -9 19 -5 0 -11 9 -14 20 -4 14 0 20 11 21 11 0 12 2 4 6 -6 2 -10 8
-8 11 2 4 -16 7 -40 6 -31 0 -44 3 -44 13 0 9 -8 13 -22 11 -17 -2 -23 2 -22
15 1 9 -2 17 -7 17 -5 0 -9 9 -9 21 0 11 -4 17 -10 14 -5 -3 -10 0 -10 9 0 8
6 16 13 19 6 2 8 8 4 13 -5 5 -13 1 -18 -9 -11 -19 -39 -24 -39 -6 0 5 -5 7
-12 3 -6 -4 -8 -3 -5 3 4 6 0 16 -8 23 -8 7 -15 21 -15 32 0 17 -2 18 -15 4
-12 -11 -23 -12 -47 -5 -18 5 -34 9 -36 9 -2 0 -2 5 0 12 2 6 -5 21 -16 34
-12 12 -27 29 -34 38 -7 9 -18 16 -25 16 -8 0 -7 -4 3 -11 13 -9 13 -10 0 -6
-18 4 -27 47 -10 47 13 0 46 30 33 30 -4 0 -1 5 7 11 12 9 11 10 -6 6 -17 -4
-20 0 -16 19 2 13 9 25 16 25 49 6 58 5 63 -7 3 -8 14 -14 25 -14 17 0 18 3 8
15 -14 17 -4 37 18 34 35 -3 50 2 95 32 33 21 47 38 47 53 0 13 3 26 6 29 4 4
8 22 10 42 4 41 12 58 24 50 5 -3 8 24 7 60 -1 36 -5 65 -9 65 -5 0 -8 6 -8
14 0 17 -11 25 -42 31 -12 3 -25 10 -30 17 -11 18 -10 48 2 48 23 0 7 18 -19
22 -26 4 -28 2 -21 -13 15 -27 -14 -18 -57 19 -21 18 -44 37 -51 43 -8 6 -28
8 -48 5 -19 -4 -34 -3 -33 1 4 22 -5 31 -52 47 -35 13 -54 15 -61 8 -7 -7 -18
-2 -36 19 -13 16 -22 33 -18 36 3 3 -3 12 -14 20 -11 8 -20 21 -20 29 0 8 -7
14 -15 14 -28 0 -92 80 -80 100 3 5 -3 13 -12 19 -40 22 -5 25 185 17 56 -3
92 -1 92 5 0 5 6 9 13 8 6 -1 25 3 41 10 16 6 35 10 42 7 8 -3 16 -1 19 4 4 6
1 10 -6 10 -8 0 -8 4 1 15 10 13 9 15 -8 15 -12 0 -24 -4 -27 -10 -9 -14 -37
-12 -33 2 3 7 34 18 71 24 86 16 141 47 176 101 16 23 48 103 72 176 l44 134
38 -5 c43 -5 147 25 147 44 0 13 76 26 106 18 11 -3 28 3 42 16 12 12 26 18
31 15 5 -3 13 -1 16 5 4 6 14 10 23 9 10 -1 44 1 77 6 33 5 70 8 83 7 13 -1
21 2 18 7 -3 5 13 5 36 -1 50 -11 56 -18 64 -80 4 -27 10 -48 14 -48 13 0 19
-54 8 -67 -8 -10 -6 -13 6 -13 9 0 17 1 19 2 6 4 47 -24 47 -33 0 -6 7 -18 16
-26 13 -14 17 -14 25 -2 5 8 9 17 9 21 0 4 18 12 40 18 22 6 38 15 35 20 -9
15 6 60 21 60 8 0 14 7 14 15 0 13 4 14 21 5 15 -9 24 -8 34 0 12 10 16 5 21
-30 5 -29 14 -46 33 -58 14 -9 29 -20 32 -25 3 -4 13 -5 21 -2 9 4 19 2 23 -4
10 -17 25 -13 25 7 0 9 7 25 15 35 7 11 11 25 9 32 -7 16 33 45 62 45 26 0 62
-41 70 -79 3 -14 8 -33 11 -41 4 -8 5 -19 3 -25 -2 -5 -7 -75 -11 -155 -4 -99
-11 -159 -23 -190 -22 -57 -23 -64 -11 -68 6 -1 12 8 13 20 2 13 10 27 18 31
8 5 12 12 9 17 -3 5 3 15 13 22 11 7 22 23 26 36 4 12 14 22 22 22 8 0 14 5
14 12 0 9 3 9 12 0 9 -9 -1 -36 -40 -116 -58 -118 -64 -146 -29 -145 31 1 187
-27 217 -39 24 -10 24 -11 -8 -11 -19 -1 -31 -5 -27 -11 9 -14 56 -12 74 3 27
22 83 36 151 38 36 1 71 6 77 12 15 11 47 1 38 -12 -3 -6 10 -13 29 -16 28 -6
46 0 98 28 87 49 161 60 284 42 117 -18 194 -17 201 1 8 22 43 17 43 -6 0 -17
7 -20 45 -20 33 0 47 -5 52 -16 10 -27 -14 -31 -105 -18 -115 18 -271 18 -294
0 -10 -7 -18 -15 -18 -18 0 -3 55 -8 123 -12 67 -4 142 -11 167 -16 25 -5 69
-9 98 -10 36 0 51 -4 46 -11 -4 -8 -104 -9 -344 -5 -335 6 -338 6 -333 -14 3
-11 1 -20 -5 -20 -5 0 -13 -11 -16 -24 -3 -13 -24 -42 -46 -65 l-40 -41 84 0
c97 0 105 -7 72 -66 -24 -43 -60 -65 -115 -70 -20 -3 -52 -7 -73 -10 -31 -5
-37 -3 -43 15 -5 17 -12 20 -31 15 -16 -4 -31 -1 -44 11 -23 21 -39 13 -33
-17 7 -36 -14 -80 -35 -74 -35 10 -85 11 -89 1 -2 -6 12 -19 31 -29 28 -15 38
-16 56 -6 24 13 110 5 110 -9 0 -5 -7 -14 -15 -21 -11 -9 -13 -16 -5 -24 30
-30 9 -31 -249 -10 -54 5 -72 4 -67 -5 9 -14 -72 16 -95 36 -8 7 -20 13 -25
13 -5 0 -17 9 -27 20 -9 11 -26 20 -38 20 -18 0 -20 -4 -15 -26 7 -27 7 -27
-39 -21 -51 7 -97 28 -77 35 16 5 15 29 -2 35 -7 3 -28 -10 -45 -29 -36 -38
-71 -45 -71 -15 0 29 -17 35 -30 11 -13 -24 -28 -26 -37 -3 -4 10 2 23 17 35
25 20 25 20 -7 34 -17 7 -20 13 -13 24 8 12 13 13 30 3 25 -16 41 -16 39 0 -3
28 2 37 22 37 16 0 19 -4 14 -17 -21 -50 -19 -54 11 -42 37 16 50 29 59 57 5
19 1 25 -31 38 -52 22 -114 13 -165 -21 -29 -21 -43 -25 -51 -17 -14 14 6 42
29 42 13 0 13 3 3 15 -14 16 -35 21 -25 5 3 -5 -7 -8 -24 -7 -23 1 -34 9 -42
30 -6 15 -15 27 -20 27 -14 0 -30 -40 -24 -60 5 -15 12 -18 42 -13 l36 6 -7
-37 c-5 -28 -3 -38 9 -42 8 -3 15 -15 15 -26 0 -16 -5 -19 -21 -15 -23 6 -33
-13 -44 -86 l-7 -47 48 -1 c27 -1 53 -1 58 0 4 1 14 -3 21 -9 7 -6 17 -10 21
-9 17 5 240 -12 299 -22 53 -10 95 -31 95 -48 0 -4 -28 -7 -62 -6 -35 0 -76
-5 -91 -11 l-28 -11 28 -19 c15 -10 34 -17 41 -16 7 2 15 -4 18 -13 4 -10 13
-13 27 -9 32 10 128 -27 138 -53 8 -22 19 -27 48 -24 7 2 10 -2 7 -7 -3 -5 13
-15 37 -20 23 -6 52 -20 64 -32 12 -11 33 -20 47 -20 14 0 27 -4 30 -9 3 -5
23 -8 44 -6 20 1 29 1 20 -2 -10 -2 -18 -12 -18 -21 0 -16 15 -21 83 -25 9 -1
17 -4 17 -8 0 -4 30 -10 68 -14 93 -10 104 -13 114 -27 5 -9 8 -9 8 -2 0 7 9
14 20 17 11 3 20 1 20 -4 0 -5 -8 -9 -17 -9 -40 -1 16 -20 77 -27 64 -6 79
-15 60 -38 -9 -10 0 -18 46 -39 31 -14 62 -26 68 -26 7 0 16 -4 22 -9 5 -6 23
-12 40 -15 16 -3 46 -13 65 -23 26 -13 30 -18 16 -21 -12 -2 -16 -9 -13 -19 3
-8 6 -17 6 -19 0 -2 6 -4 14 -4 7 0 25 -9 39 -20 14 -11 35 -20 46 -20 19 0
68 -24 81 -41 3 -3 20 -9 38 -12 18 -4 40 -14 48 -22 9 -8 20 -13 25 -10 5 4
9 1 9 -6 0 -7 10 -9 30 -5 22 4 30 2 30 -8 0 -8 14 -26 30 -39 17 -14 30 -31
30 -38 0 -7 3 -10 6 -7 3 3 17 -5 31 -18 15 -14 37 -27 50 -29 13 -3 34 -7 47
-10 17 -3 29 -16 37 -40 11 -29 19 -36 58 -45 42 -10 89 -19 116 -24 6 -1 16
-5 23 -9 6 -5 12 -5 12 0 0 4 4 3 8 -4 4 -6 19 -14 32 -16 66 -12 140 -39 134
-49 -7 -11 -1 -10 64 8 15 4 22 2 22 -8 0 -15 48 -37 68 -30 9 3 12 72 12 289
l0 286 -51 -6 c-38 -5 -59 -2 -83 11 l-31 17 43 3 42 3 0 53 0 53 -132 22
c-73 13 -162 30 -198 38 -98 22 -109 22 -128 -9 -16 -27 -16 -29 10 -54 30
-30 64 -27 53 5 -3 10 -2 26 1 35 5 14 14 16 43 11 20 -4 47 -9 60 -12 14 -2
28 -6 33 -9 13 -8 9 -79 -6 -99 -12 -17 -19 -18 -67 -8 -81 16 -173 43 -183
53 -5 5 -10 48 -11 95 -2 84 -2 86 25 100 15 8 31 26 34 40 4 14 11 23 16 20
5 -3 24 2 44 11 30 15 40 15 81 4 38 -11 44 -15 30 -23 -9 -5 -32 -6 -52 -2
-21 4 -40 2 -48 -5 -8 -6 -24 -10 -37 -8 -17 2 -24 -2 -26 -19 -4 -24 30 -48
53 -39 8 3 27 -1 42 -9 53 -27 338 -85 416 -85 l27 0 0 190 c0 105 -4 190 -8
190 -4 0 -70 9 -147 20 -159 22 -244 25 -115 3 86 -14 112 -26 95 -41 -13 -11
-258 19 -267 32 -4 6 -6 17 -3 24 2 7 -4 12 -15 12 -17 0 -20 6 -19 43 2 42 4
44 43 55 38 10 142 31 241 47 l40 7 -40 14 c-22 8 -57 16 -79 19 -49 5 -52 9
-36 41 l14 25 9 -23 c7 -17 11 -19 15 -8 8 21 93 100 108 100 18 0 27 18 12
23 -7 2 -5 3 4 2 20 -3 68 16 68 27 0 4 18 12 40 18 53 14 54 40 3 40 -21 0
-74 7 -118 16 -55 11 -125 15 -225 13 -80 -2 -170 1 -200 5 -30 4 -82 8 -114
9 -84 3 -81 22 6 36 94 16 476 8 655 -14 l33 -4 0 716 c0 394 -3 714 -7 710
-3 -4 -15 1 -26 10 -18 17 -20 17 -41 -10 -15 -19 -28 -26 -39 -21 -21 8 -35
-22 -18 -39 8 -8 11 -8 11 2 0 7 5 9 10 6 16 -10 11 -25 -8 -25 -11 0 -27 -9
-37 -20 -10 -11 -29 -20 -42 -20 -18 0 -23 -5 -23 -24 0 -35 -10 -56 -26 -56
-9 0 -14 -12 -14 -35 0 -19 -5 -45 -12 -58 -6 -12 -14 -29 -18 -37 -4 -8 -19
-16 -34 -18 -36 -5 -42 -25 -17 -61 26 -37 26 -53 0 -77 -15 -13 -19 -26 -15
-46 4 -23 2 -28 -13 -28 -20 0 -47 -52 -37 -69 4 -6 -2 -16 -14 -23 -11 -7
-20 -23 -20 -35 0 -12 -4 -25 -10 -28 -15 -9 -12 -22 9 -42 11 -10 22 -30 26
-44 6 -23 2 -29 -32 -46 -22 -12 -37 -27 -37 -37 2 -18 -4 -20 -26 -6 -8 5
-19 5 -25 1 -5 -5 -25 -12 -43 -16 l-33 -7 27 -35 c14 -19 24 -36 23 -37 -2
-2 -24 -8 -48 -14 -49 -12 -73 -6 -49 12 22 16 29 94 12 141 -13 38 -12 41 12
67 15 14 23 31 20 36 -3 6 5 19 19 29 18 13 23 24 19 41 -9 33 -58 34 -87 0
-13 -16 -21 -18 -29 -10 -9 9 -7 19 9 40 29 39 17 60 -25 43 -37 -15 -52 -8
-52 24 0 16 7 26 23 31 28 8 57 33 57 49 0 19 -27 26 -55 15 -44 -17 -44 28 0
48 20 9 23 17 22 56 -2 36 -6 46 -19 46 -9 0 -19 4 -22 8 -6 10 8 34 20 31 26
-5 34 3 32 30 -1 17 5 38 15 49 9 10 17 30 17 44 0 15 9 32 23 41 22 16 22 16
-11 16 -20 1 -35 -5 -38 -14 -4 -8 -11 -12 -16 -9 -6 4 -8 -1 -4 -13 10 -31
-3 -55 -26 -47 -23 7 -57 -32 -76 -91 -19 -55 -23 -58 -73 -48 -39 8 -43 11
-44 38 0 21 7 33 24 41 15 8 25 22 25 37 2 36 43 66 91 67 42 0 52 5 74 32 12
16 10 19 -12 27 -20 8 -24 15 -19 38 4 23 2 26 -9 15 -8 -7 -14 -27 -14 -45 0
-29 -3 -32 -30 -32 -27 0 -30 3 -28 28 2 23 -1 27 -14 23 -20 -8 -53 21 -53
46 0 14 -5 18 -17 14 -82 -22 -111 -11 -99 39 8 30 5 41 -9 36 -5 -2 -22 -5
-37 -8 -23 -3 -28 -1 -28 17 0 16 -4 20 -16 16 -9 -4 -22 -2 -28 3 -10 9 -17
11 -33 11 -5 0 5 9 20 19 16 10 37 17 47 14 10 -3 21 0 25 6 4 8 -14 11 -63 9
-39 -2 -68 -6 -66 -9 2 -4 -5 -18 -16 -32 -11 -14 -19 -32 -18 -39 2 -7 -6
-13 -17 -13 -12 0 -20 7 -20 17 0 29 -12 30 -33 4 -11 -15 -25 -26 -31 -26 -6
0 -11 -4 -11 -9 0 -5 -12 -23 -26 -41 -20 -23 -29 -28 -39 -20 -8 6 -43 13
-80 15 -59 2 -68 0 -96 -24 -23 -20 -40 -26 -79 -26 -38 0 -53 -5 -64 -20 -18
-25 -38 -9 -38 29 0 15 -4 29 -9 32 -5 3 -9 -1 -9 -9 0 -16 -32 -19 -42 -3 -5
7 -8 5 -8 -5 0 -10 -11 -20 -25 -23 -14 -4 -25 -11 -25 -17 0 -5 -6 -4 -14 3
-7 7 -12 23 -10 35 2 12 0 25 -6 28 -15 10 -12 25 6 25 10 0 15 8 14 23 -2 26
9 67 19 67 4 0 8 15 9 33 1 49 7 91 15 104 4 6 4 19 1 28 -5 12 -2 16 12 13
16 -3 19 3 18 40 0 29 2 39 8 30 9 -13 3 41 -8 80 -3 9 4 1 16 -18 l20 -35 -5
60 c-7 71 -25 148 -37 156 -5 3 -11 37 -14 75 -6 61 -30 138 -80 251 -8 17
-14 35 -14 40 0 5 -18 35 -40 68 -22 33 -40 66 -40 74 0 7 -17 34 -39 60 -21
25 -41 56 -45 68 -4 13 -46 64 -93 115 -47 51 -98 112 -113 135 -28 44 -80 93
-99 93 -6 0 -11 4 -11 10 0 31 -207 186 -289 216 -36 14 -75 29 -86 34 -34 16
-265 90 -281 90 -8 0 -34 10 -57 23 -23 13 -71 29 -107 36 -114 21 -120 22
-120 32 0 5 12 10 28 10 18 1 13 4 -18 10 -63 11 -183 8 -335 -7z m-5225
-1915 c0 -34 16 -39 26 -7 6 21 7 20 23 -10 16 -30 17 -31 29 -12 7 11 19 20
27 20 8 0 15 5 15 10 0 6 5 10 11 10 7 0 9 -10 7 -25 -3 -14 1 -30 8 -36 8 -6
14 -18 14 -25 0 -7 14 -20 30 -29 30 -15 30 -15 30 10 0 14 5 25 10 25 6 0 10
-12 10 -28 0 -36 33 -67 50 -47 6 8 17 12 25 9 7 -3 16 -1 20 5 11 18 23 12
18 -8 -3 -10 0 -22 6 -25 7 -5 11 2 11 16 0 13 7 32 15 42 14 19 15 18 37 -10
13 -16 23 -32 22 -36 -1 -5 -2 -32 -2 -62 -2 -45 -5 -54 -19 -52 -12 2 -19 13
-21 34 -3 32 -15 41 -27 22 -3 -5 -15 -10 -27 -10 -17 0 -18 -2 -8 -15 10 -12
15 -13 21 -4 5 8 10 5 18 -10 10 -18 9 -21 -11 -23 -61 -5 -74 -4 -86 5 -9 7
-20 2 -37 -17 -25 -27 -57 -28 -35 -1 8 9 7 20 -1 39 -9 19 -15 23 -21 14 -5
-8 -8 1 -8 23 0 23 -6 39 -15 43 -10 4 -15 -1 -15 -14 0 -24 -8 -25 -34 -5
-11 8 -27 13 -37 10 -13 -4 -19 4 -28 39 -10 43 -16 46 -51 33 -8 -3 -24 -8
-35 -12 -14 -4 -16 -8 -7 -14 8 -5 2 -8 -18 -9 -24 0 -33 5 -40 24 -17 42 -13
55 14 48 21 -5 23 -3 20 24 -2 17 -5 36 -6 42 -5 22 20 22 27 1 3 -12 11 -21
17 -21 5 0 8 7 4 15 -7 19 3 47 15 39 5 -3 9 -18 9 -35z m-1404 -1 c2 -3 1
-53 -3 -111 l-6 -107 -49 0 c-59 0 -66 12 -63 115 1 39 -2 77 -6 86 -5 9 -5
20 -1 24 7 7 120 1 128 -7z m145 -26 c4 -4 4 -53 2 -110 l-6 -103 -41 2 c-73
4 -73 5 -70 121 2 57 3 105 3 107 1 6 105 -10 112 -17z m2427 -26 c2 -10 -6
-20 -22 -26 -21 -8 -26 -16 -26 -44 0 -39 28 -60 37 -26 3 11 13 20 22 20 25
0 33 -11 20 -26 -6 -7 -9 -23 -7 -36 2 -19 8 -22 31 -20 32 3 45 -19 29 -51
-6 -12 -14 -36 -17 -54 -6 -28 -4 -31 15 -26 15 4 19 11 15 22 -4 9 -9 21 -11
26 -5 12 32 75 43 75 5 -1 18 -9 31 -20 28 -23 22 -70 -9 -70 -11 0 -22 -6
-24 -12 -25 -71 -26 -73 -36 -56 -5 9 -16 15 -23 12 -8 -3 -19 4 -26 15 -6 12
-7 21 -3 21 4 0 8 14 9 30 1 22 -3 30 -15 30 -10 0 -22 5 -28 11 -6 6 -34 12
-62 14 -54 4 -104 -14 -120 -43 -9 -15 -11 -15 -31 3 -19 18 -23 18 -33 4 -19
-24 -44 -29 -73 -14 -15 7 -32 11 -39 9 -8 -4 -16 7 -20 27 l-7 33 -14 -26
c-17 -32 -51 -42 -73 -21 -12 12 -13 17 -3 21 7 2 10 8 7 13 -4 5 -16 2 -28
-6 -12 -8 -38 -15 -58 -16 -28 -2 -35 -7 -32 -20 8 -27 -17 -33 -39 -9 l-21
22 -12 -22 c-12 -22 -12 -22 -18 10 -4 18 -4 36 -1 42 3 5 5 45 5 89 -1 87 11
101 35 43 10 -24 20 -34 29 -30 18 7 30 -12 27 -41 -3 -22 28 -40 48 -28 19
12 10 26 -12 20 -19 -6 -21 -5 -10 6 6 7 12 28 12 46 0 28 4 33 24 33 13 0 26
7 30 15 3 8 16 15 30 15 23 0 24 -3 22 -57 l-1 -58 32 -1 c18 0 36 -3 39 -7 4
-4 18 -4 31 -1 21 6 24 3 21 -16 -4 -32 20 -37 28 -6 4 16 13 26 24 26 10 0
21 7 24 16 4 10 12 14 22 10 24 -9 73 15 77 39 2 13 6 6 11 -20 11 -61 19 -74
24 -45 2 13 13 30 23 38 25 17 24 39 -1 54 -28 18 -26 56 3 60 41 8 72 1 75
-16z m410 -48 c9 -9 12 -9 12 1 0 7 5 9 13 4 6 -4 17 -8 22 -9 6 0 16 -2 23
-2 26 -4 11 -22 -18 -22 -16 0 -30 -4 -30 -10 0 -5 4 -10 9 -10 5 0 13 -10 17
-22 9 -30 22 -38 61 -38 l32 0 -5 -57 c-3 -32 -8 -87 -11 -123 -4 -36 -5 -71
-4 -77 2 -15 -105 -18 -127 -4 -10 6 -12 40 -10 144 2 99 0 139 -9 148 -11 11
-13 9 -13 -9 0 -12 -5 -22 -11 -22 -6 0 -8 7 -5 16 4 9 1 23 -5 30 -6 7 -8 18
-4 25 4 6 2 15 -5 19 -7 4 -9 13 -6 19 9 15 59 14 74 -1z m242 -112 c35 -3 68
-10 72 -14 8 -8 -7 -228 -18 -265 -4 -14 -13 -16 -40 -12 -19 3 -49 7 -66 10
l-33 5 2 142 c2 170 1 166 11 152 4 -6 36 -14 72 -18z m3192 -174 c-1 -8 6
-10 22 -6 13 3 37 -1 52 -9 19 -10 37 -12 51 -6 13 5 25 4 28 -1 4 -6 26 -10
51 -10 24 0 44 -4 44 -9 0 -5 11 -12 25 -15 14 -4 25 -11 25 -17 0 -7 -10 -9
-22 -6 -54 14 -161 26 -268 32 -63 3 -131 10 -150 14 -33 7 -32 8 27 15 41 4
63 12 67 22 7 18 52 15 48 -4z m2684 -13 c3 -6 17 -8 30 -5 46 12 81 -31 52
-63 -11 -11 -8 -12 16 -7 17 4 58 2 93 -5 70 -14 78 -28 43 -69 -11 -13 -20
-29 -20 -37 0 -7 -8 -16 -17 -20 -10 -3 -25 -15 -34 -25 -13 -17 -19 -18 -42
-7 -20 9 -27 20 -27 40 0 15 -4 31 -10 34 -5 3 -10 15 -10 26 0 12 -7 19 -18
19 -29 0 -92 37 -123 71 -31 35 -29 45 11 52 43 8 49 7 56 -4z m-4038 -50 c53
-7 106 -18 117 -26 l20 -15 -20 5 c-65 18 -70 19 -55 8 13 -9 13 -11 -2 -11
-22 0 -89 -40 -68 -40 13 0 13 -1 0 -10 -13 -8 -12 -10 3 -10 34 0 16 -17 -34
-30 -44 -12 -54 -20 -66 -48 -16 -40 -9 -72 17 -72 10 0 25 -6 32 -14 20 -19
107 -56 134 -56 35 0 39 -19 5 -26 -17 -4 -31 -10 -31 -15 0 -5 -6 -9 -13 -9
-7 0 -25 -6 -40 -12 -35 -17 -35 -46 1 -54 33 -9 43 -22 36 -51 -4 -15 1 -26
18 -36 30 -20 74 -26 71 -10 -2 7 3 10 11 7 7 -3 37 9 65 25 29 17 55 31 59
31 4 0 15 12 24 28 15 23 18 24 18 7 0 -11 10 7 21 40 13 36 18 71 15 90 -4
20 -3 25 3 16 22 -34 27 100 6 152 -4 9 -3 17 3 17 16 0 28 -71 21 -120 -38
-244 -86 -376 -149 -410 -40 -21 -155 -29 -284 -19 -150 11 -207 23 -258 55
-76 48 -131 228 -132 435 -1 172 1 176 107 178 45 1 83 4 86 7 8 8 163 4 259
-7z m1328 -47 c-2 -4 12 -6 33 -4 48 5 209 -23 247 -43 16 -8 35 -15 42 -15 6
0 12 -7 12 -16 0 -14 -5 -13 -36 5 -42 25 -54 26 -54 6 0 -20 -16 -19 -24 1
-4 12 -14 14 -36 9 -34 -7 -130 12 -130 26 0 5 -7 9 -16 9 -8 0 -12 -4 -9 -10
3 -5 -1 -10 -9 -10 -9 0 -16 4 -16 9 0 5 -10 11 -22 14 -13 2 -32 8 -42 12
-13 6 -17 5 -12 -3 4 -8 -3 -8 -26 -1 -30 8 -74 5 -123 -8 -17 -5 -18 -4 -4
10 9 8 29 17 45 19 46 5 185 -3 180 -10z m1866 -178 c55 -28 82 -86 98 -206
17 -130 -14 -290 -63 -326 -9 -7 -15 -18 -12 -23 10 -15 -11 -10 -25 6 -10 12
-7 17 14 26 21 10 26 19 26 49 0 20 6 42 13 48 18 19 19 250 1 279 -8 12 -14
29 -14 38 0 8 -3 14 -7 13 -5 -1 -22 6 -40 15 -41 22 -139 22 -192 1 -22 -9
-45 -14 -51 -12 -18 6 34 67 63 73 15 4 25 11 22 15 -9 14 55 28 100 23 22 -3
52 -11 67 -19z m-2443 -239 c28 -89 93 -195 120 -195 6 0 11 -4 11 -10 0 -5
11 -10 25 -10 14 0 25 -4 25 -9 0 -5 11 -11 25 -13 13 -3 22 -2 20 3 -3 4 5 9
17 11 35 5 78 -3 78 -14 0 -6 -13 -8 -32 -4 -24 4 -29 3 -18 -4 17 -11 51 -13
74 -4 13 5 14 9 5 21 -11 12 -8 13 17 8 l29 -6 -30 16 -30 15 40 -6 c50 -7 53
-11 29 -29 -17 -13 -17 -14 -1 -15 9 0 17 -4 17 -9 0 -6 -17 -8 -37 -6 l-38 5
35 -10 c28 -7 42 -5 67 10 29 17 34 17 48 4 13 -14 15 -12 15 13 0 22 2 25 10
13 6 -10 10 -11 10 -2 0 6 11 12 25 12 15 0 25 6 25 14 0 13 74 36 116 36 8 0
22 13 32 28 15 25 21 27 55 21 28 -4 40 -2 44 7 3 8 9 11 14 9 5 -3 11 5 15
19 3 14 14 28 24 31 21 7 33 76 16 87 -8 6 -7 8 1 8 6 0 15 9 18 20 8 25 22
26 30 1 6 -19 -47 -216 -70 -261 -46 -88 -178 -122 -395 -101 -233 23 -368 59
-413 109 -26 29 -84 158 -101 224 -9 35 -19 95 -21 133 l-5 70 23 -100 c13
-55 29 -118 36 -140z m3811 -709 c18 -14 54 -28 94 -36 36 -7 73 -18 83 -26
17 -13 17 -14 -4 -20 -13 -3 -23 -9 -23 -13 0 -4 -16 -23 -35 -43 l-36 -36 29
-18 29 -17 -16 -46 c-19 -52 -42 -59 -96 -31 -21 11 -54 15 -115 13 -47 -1
-106 -2 -131 -2 -46 0 -47 -1 -53 -38 -13 -73 -15 -76 -50 -70 -17 3 -49 1
-71 -3 -30 -6 -11 -8 72 -9 l112 -1 3 38 c3 36 4 37 49 40 61 4 81 -17 57 -58
l-16 -28 44 -13 c50 -15 54 -22 21 -44 -20 -13 -36 -13 -108 -4 -46 7 -90 18
-98 25 -18 16 -59 -8 -72 -44 -13 -33 1 -42 64 -42 26 0 47 -4 47 -9 0 -5 17
-13 37 -18 45 -10 58 -34 16 -31 -42 3 -58 -10 -39 -31 17 -19 22 -17 -59 -24
-53 -6 -53 -5 -27 -23 27 -18 28 -32 5 -50 -28 -21 -71 -17 -83 7 -12 22 -6
69 9 69 5 0 7 9 4 20 -6 24 -26 26 -43 5 -13 -16 -50 -21 -50 -7 0 5 -35 4
-77 -1 -79 -9 -249 5 -284 24 -21 11 -30 98 -17 148 15 53 86 170 126 206 34
32 34 32 155 34 110 1 131 4 211 34 82 29 121 57 82 57 -9 0 -16 3 -16 8 0 7
-54 34 -93 46 -24 8 -17 30 11 34 11 2 55 -11 98 -28 66 -26 79 -29 93 -17 17
15 50 42 91 76 32 26 36 26 70 -3z m-3494 -57 c17 -19 19 -19 26 -2 5 11 6 5
2 -15 -6 -36 12 -73 53 -105 13 -10 23 -24 23 -32 0 -22 -42 -26 -65 -6 -31
28 -51 31 -71 12 -17 -16 -22 -16 -52 -4 -19 8 -31 9 -27 4 3 -6 -1 -11 -9
-11 -16 0 -32 42 -22 58 2 4 -4 14 -14 22 -28 20 -9 47 53 75 65 30 79 30 103
4z m-492 -234 c11 -8 36 -15 56 -15 20 0 39 -3 43 -6 3 -4 24 -7 46 -8 42 -2
91 -36 91 -62 0 -16 -68 -17 -87 -2 -16 13 -81 30 -111 30 -17 0 -27 8 -34 29
-9 27 -11 28 -33 13 -15 -10 -25 -12 -30 -5 -3 6 -21 11 -38 11 -24 0 -28 3
-17 10 21 14 57 12 63 -2 3 -8 6 -6 6 5 1 21 19 22 45 2z m-802 -156 c17 -9
18 -13 7 -20 -11 -7 -10 -9 4 -9 10 0 16 -4 12 -9 -3 -5 -21 -7 -39 -4 -73 12
-110 -80 -71 -174 27 -65 77 -83 97 -35 10 24 12 25 15 6 5 -28 -13 -73 -32
-81 -9 -3 -27 -1 -40 5 -27 12 -77 85 -81 117 -1 11 -6 48 -10 83 l-7 62 37
35 c39 36 71 44 108 24z m976 -581 c-2 -8 10 -14 27 -16 17 -2 34 -8 40 -13
14 -14 35 -11 35 5 0 8 -6 17 -12 19 -7 3 1 3 17 1 17 -3 50 -1 75 4 53 10
207 -3 226 -19 11 -9 14 -8 14 4 0 24 26 27 67 8 21 -10 60 -19 87 -19 27 0
51 -4 55 -9 5 -7 36 -13 94 -17 9 0 17 -4 17 -8 0 -5 0 -21 0 -38 0 -23 -5
-30 -19 -30 -26 0 -37 18 -16 26 14 6 13 8 -5 21 -17 12 -26 12 -57 1 -29 -10
-37 -10 -40 0 -5 14 -73 17 -73 2 0 -5 -8 -10 -17 -11 -12 0 -9 -5 10 -13 31
-14 26 -26 -12 -26 -29 -1 -59 -20 -54 -35 1 -5 -11 -18 -27 -27 -17 -9 -35
-29 -40 -43 -6 -15 -17 -25 -30 -25 -25 0 -26 9 -2 26 15 12 14 13 -12 14 -30
0 -66 -31 -66 -58 0 -13 -2 -13 -17 0 -21 19 -63 7 -63 -16 0 -18 -72 -35 -78
-18 -2 6 -25 8 -61 6 -56 -5 -60 -3 -95 31 -20 19 -46 35 -57 35 -16 0 -20 5
-16 20 4 16 2 18 -11 11 -9 -5 -25 -6 -36 -1 -13 4 -44 0 -80 -12 -34 -11 -62
-15 -65 -10 -3 5 -16 12 -28 16 -33 10 -28 35 6 42 17 4 37 14 46 24 9 10 24
16 34 13 22 -6 54 24 47 43 -3 8 1 14 8 14 25 0 28 32 5 57 l-22 23 30 0 c17
0 33 -6 36 -12 6 -19 95 -15 115 5 20 20 23 21 20 5z"/>
<path d="M5142 6158 c-30 -30 4 -62 85 -78 32 -6 80 -18 107 -26 57 -16 71 -9
53 25 -14 28 -127 68 -138 50 -4 -8 -9 -7 -14 2 -6 9 -10 8 -16 -7 -7 -18 -8
-18 -8 2 -1 24 -19 44 -41 44 -9 0 -21 -5 -28 -12z"/>
<path d="M0 5781 c0 -6 8 -11 18 -11 49 0 297 -33 385 -50 117 -23 284 -98
393 -176 36 -26 68 -43 72 -40 7 8 -8 21 -103 90 -143 103 -238 138 -470 170
-172 23 -295 31 -295 17z"/>
<path d="M0 5678 c0 -37 4 -45 28 -56 54 -26 56 -27 49 -6 -6 17 -6 17 6 2 7
-9 26 -18 42 -20 26 -3 30 -7 27 -30 -4 -36 50 -73 81 -56 16 8 23 6 36 -9 13
-16 86 -43 116 -43 4 0 -3 15 -14 34 -22 34 -27 66 -12 66 4 0 25 -13 46 -30
32 -25 75 -40 75 -26 0 8 -146 115 -197 144 -31 19 -89 39 -147 51 -136 30
-136 30 -136 -21z"/>
<path d="M8322 5634 c-14 -52 -28 -51 -23 2 3 45 -16 44 -25 -2 -4 -23 -9 -31
-14 -23 -5 8 -12 -1 -19 -25 -9 -36 -2 -153 14 -217 5 -19 -2 -35 -24 -63 -17
-21 -31 -47 -31 -57 0 -11 -9 -28 -20 -39 -28 -28 -26 -50 6 -50 33 0 64 16
90 49 21 25 22 25 83 13 42 -9 67 -10 80 -3 24 13 76 78 93 117 7 16 18 35 25
41 19 21 27 122 13 162 -20 55 -93 108 -110 80 -11 -17 -77 8 -97 37 -8 13
-18 24 -22 24 -4 0 -12 -21 -19 -46z"/>
<path d="M1505 5463 c-139 -32 -415 -147 -415 -173 0 -15 90 -12 143 4 26 8
47 13 47 11 0 -2 20 7 46 21 25 13 55 24 68 24 13 0 35 11 51 24 23 20 55 31
110 36 5 1 11 -3 13 -8 2 -6 -20 -18 -47 -27 -30 -9 -51 -23 -51 -31 0 -8 -10
-14 -26 -14 -14 0 -23 -4 -19 -9 7 -13 -9 -22 -49 -27 -19 -2 -45 -8 -58 -13
-30 -12 -34 -11 192 -57 41 -8 107 -22 145 -30 151 -34 149 -35 67 34 -47 39
-78 59 -88 55 -14 -5 -14 -3 -3 15 11 18 11 24 -7 44 -23 27 -40 61 -48 101
-6 27 -21 32 -71 20z"/>
<path d="M0 5205 c0 -25 1 -25 80 -25 59 0 80 -3 80 -13 0 -10 -15 -11 -62 -7
-92 9 -98 6 -98 -51 l0 -49 73 0 c74 -1 116 -3 422 -21 192 -11 621 -52 720
-69 84 -14 156 -13 152 2 -3 19 28 20 64 4 19 -9 25 -14 14 -11 -11 2 -26 1
-32 -3 -8 -5 19 -13 65 -21 42 -7 91 -17 107 -22 17 -4 55 -11 85 -14 l55 -5
-40 13 c-22 7 -49 18 -60 24 -37 21 -290 97 -321 97 -18 1 -31 3 -29 6 4 6
-115 39 -158 45 -12 1 -42 8 -67 14 -41 10 -166 33 -325 60 -54 10 -241 31
-533 60 -56 6 -123 11 -147 11 -41 0 -45 -2 -45 -25z m310 -35 c3 -1 22 -1 44
0 21 1 42 -4 46 -10 4 -7 30 -14 56 -16 27 -1 87 -8 134 -15 47 -6 105 -13
130 -14 25 -1 70 -5 100 -10 30 -5 63 -7 74 -6 10 1 30 0 44 -4 21 -5 23 -8
11 -16 -10 -7 2 -9 39 -7 28 2 52 0 52 -4 0 -5 24 -8 53 -9 28 0 46 -3 40 -6
-23 -9 -14 -23 15 -23 15 0 43 -4 62 -9 19 -5 57 -12 84 -16 35 -5 45 -10 37
-18 -7 -7 -24 -7 -58 2 -27 7 -94 22 -151 35 -56 12 -99 26 -95 30 4 5 -5 6
-22 3 -30 -5 -111 5 -175 23 -35 10 -53 12 -245 30 -98 9 -238 24 -342 36 -70
9 -62 32 10 28 29 -1 54 -3 57 -4z"/>
<path d="M3635 5123 c-16 -9 -41 -24 -54 -34 -13 -11 -38 -20 -55 -20 -19 -1
-24 -3 -13 -6 15 -4 18 -12 14 -36 -6 -43 7 -64 50 -82 58 -24 114 -19 160 14
65 47 99 146 59 173 -20 14 -130 8 -161 -9z"/>
<path d="M10714 4942 c-33 -20 -73 -47 -90 -59 -28 -21 -29 -22 -9 -37 11 -8
40 -18 65 -21 25 -3 62 -8 83 -11 l37 -6 0 86 c0 62 -3 86 -12 86 -7 -1 -40
-17 -74 -38z"/>
<path d="M4573 4919 c-72 -27 -62 -190 16 -243 64 -44 104 -57 139 -44 26 10
33 20 41 57 8 38 6 53 -16 106 -21 50 -34 67 -72 92 -55 35 -79 43 -108 32z"/>
<path d="M4000 4833 c-76 -15 -80 -89 -7 -133 18 -11 26 -20 19 -20 -10 0 -9
-4 2 -16 23 -23 20 -47 -11 -76 -67 -62 -197 -84 -258 -44 -31 21 -47 13 -19
-9 59 -48 145 -48 256 0 13 5 20 2 24 -11 4 -11 22 -52 41 -91 28 -57 45 -79
81 -103 25 -16 57 -30 71 -29 24 0 24 1 -7 13 -100 36 -192 217 -150 295 12
23 18 25 104 25 76 1 96 4 113 20 12 11 21 26 21 35 0 25 -34 75 -61 88 -101
50 -166 67 -219 56z"/>
<path d="M3213 4613 c6 -11 -11 -53 -21 -53 -5 0 -9 7 -9 15 0 8 5 11 10 8 6
-3 7 -1 3 5 -12 20 -36 13 -46 -13 -5 -14 -16 -25 -25 -25 -8 0 -15 -4 -15 -9
0 -4 11 -6 25 -3 15 2 25 0 25 -7 0 -7 -3 -10 -7 -8 -5 3 -14 -1 -21 -9 -11
-12 -10 -14 4 -14 13 0 14 -3 4 -15 -7 -8 -9 -15 -4 -15 4 0 3 -5 -4 -12 -7
-7 -12 -17 -12 -22 0 -8 3 -8 8 -1 4 6 39 22 78 35 79 26 76 17 39 108 -10 23
-22 42 -27 42 -5 0 -7 -3 -5 -7z"/>
<path d="M0 4490 c0 -91 -13 -80 120 -100 41 -6 76 -13 79 -15 2 -3 -2 -11 -9
-20 -10 -12 -16 -13 -27 -3 -8 6 -31 13 -51 14 -20 1 -54 4 -74 6 -37 3 -38 2
-38 -28 l0 -32 95 -7 c56 -4 95 -11 95 -18 0 -18 -33 -87 -42 -87 -4 0 -3 9 4
20 14 23 12 26 -25 35 -21 6 -27 4 -27 -8 0 -9 10 -18 23 -20 l22 -4 -22 -2
c-16 -1 -23 -7 -23 -21 0 -21 -16 -28 -22 -10 -2 6 -16 6 -40 -1 l-38 -10 0
-329 0 -330 83 0 c250 2 1027 21 1182 29 478 27 667 47 724 78 24 13 61 23 83
23 47 0 56 16 33 60 -9 17 -14 37 -12 43 2 7 0 20 -5 30 -5 10 -9 63 -10 117
l0 99 -131 52 c-111 44 -292 110 -412 151 -44 15 -86 68 -54 68 6 0 81 -25
165 -56 85 -30 160 -54 166 -52 6 2 -38 21 -98 42 -60 21 -145 51 -190 67 -44
16 -86 29 -92 29 -15 0 -16 -16 -2 -25 6 -3 10 -13 10 -22 0 -10 -5 -13 -17
-8 -86 35 -535 160 -733 204 -259 57 -607 121 -662 121 l-28 0 0 -80z m701
-250 c10 -6 19 -7 19 -2 0 4 26 4 58 0 31 -5 73 -10 92 -12 19 -1 44 -7 55
-12 11 -5 73 -9 137 -9 65 0 118 -3 118 -7 0 -5 16 -8 35 -8 19 0 35 -4 35 -9
0 -5 8 -12 18 -14 9 -3 -77 -5 -193 -4 -207 2 -210 2 -243 27 -30 22 -43 25
-113 24 -43 -1 -79 1 -79 4 0 5 32 31 38 32 2 0 12 -5 23 -10z"/>
<path d="M5049 4313 c-6 -20 -20 -46 -30 -57 -11 -11 -19 -23 -19 -27 0 -4 -6
-14 -12 -21 -7 -7 -20 -21 -27 -31 -13 -16 -13 -18 0 -16 7 2 25 -3 37 -10 33
-18 40 -6 11 18 -13 11 -20 23 -16 27 4 5 18 -4 30 -18 12 -14 34 -29 48 -32
18 -4 29 -15 33 -31 3 -13 18 -35 33 -49 24 -23 28 -23 50 -9 29 19 42 10 20
-15 -17 -19 -24 -47 -9 -38 15 9 34 -78 23 -107 -13 -34 14 -170 42 -210 l19
-28 24 22 c13 12 24 18 24 12 0 -6 -6 -14 -12 -17 -7 -3 3 -4 22 -3 29 3 35 8
41 33 11 55 32 71 44 35 3 -12 14 -19 25 -18 18 1 20 9 20 62 0 37 -6 69 -14
81 -14 18 -15 18 -26 -10 -6 -17 -10 -39 -9 -50 1 -12 1 -25 0 -31 -2 -15 -30
38 -31 58 0 10 -7 20 -15 23 -8 4 -15 16 -15 29 0 13 -6 25 -13 28 -8 3 -20
34 -27 69 -20 93 -37 127 -73 146 -52 27 -108 91 -139 159 -17 35 -34 63 -38
63 -5 0 -14 -17 -21 -37z"/>
<path d="M3136 4273 c-2 -2 -12 -6 -21 -7 -9 -1 -21 -9 -26 -17 -7 -11 -9 -10
-10 6 0 14 -2 15 -6 5 -2 -8 -12 -31 -21 -50 -29 -61 -21 -154 22 -247 35 -77
45 -123 28 -123 -17 0 -62 57 -62 78 0 12 -5 22 -11 22 -6 0 -8 8 -4 19 3 11
-1 26 -10 35 -22 22 -28 20 -15 -4 8 -14 7 -25 -2 -40 -7 -11 -15 -20 -18 -20
-9 0 1 -84 11 -94 6 -6 9 -5 9 4 0 21 45 -31 47 -55 1 -11 5 -34 9 -51 4 -23
2 -33 -9 -37 -9 -3 -18 1 -21 9 -9 23 -25 7 -24 -24 1 -33 -34 -93 -40 -71 -3
8 -9 20 -15 27 -8 11 -12 11 -19 0 -6 -10 -10 -10 -17 1 -8 13 -12 13 -27 0
-16 -12 -17 -12 -12 1 5 13 -12 15 -112 15 -85 0 -122 4 -134 14 -13 11 -20
11 -28 3 -7 -7 -25 -12 -40 -12 -15 0 -28 -4 -28 -9 0 -13 26 -21 66 -21 18 0
51 -6 71 -14 21 -8 47 -16 57 -18 23 -4 32 -44 11 -52 -8 -3 -15 -10 -15 -17
0 -13 83 -2 88 12 5 11 52 12 52 1 0 -5 16 -17 35 -28 20 -11 35 -26 35 -37 0
-10 7 -20 15 -23 19 -8 20 -44 0 -44 -8 0 -22 -11 -31 -25 -11 -16 -21 -22
-28 -17 -6 5 -34 9 -63 9 -37 1 -59 7 -79 22 -14 11 -30 18 -35 15 -16 -9 -10
-33 11 -44 11 -6 18 -15 15 -20 -6 -9 44 -23 65 -18 7 2 15 -2 17 -9 2 -7 -6
-15 -19 -18 -27 -7 -113 32 -143 65 -19 21 -55 28 -55 10 0 -15 -45 -12 -101
6 -31 11 -58 13 -76 8 -34 -9 -35 -9 -53 -17 -35 -16 -145 -22 -290 -16 -85 3
-161 4 -167 1 -14 -4 -18 -54 -6 -66 12 -12 12 -36 0 -36 -8 0 -8 -3 -2 -8 13
-9 16 -64 4 -56 -5 3 -9 0 -9 -5 0 -7 33 -11 88 -11 48 -1 119 -5 157 -10 39
-5 90 -12 116 -16 l45 -6 10 37 c7 31 16 39 49 51 59 20 65 18 65 -20 0 -37
-12 -46 -61 -46 -51 0 -36 -28 19 -35 26 -3 66 -9 90 -14 49 -10 53 -6 54 48
0 30 5 40 19 44 11 3 17 2 15 -2 -8 -13 16 -91 28 -90 6 1 27 -5 46 -14 25
-11 40 -12 54 -5 10 6 44 8 75 6 43 -4 51 -3 34 5 -28 12 -29 23 -5 36 9 6 13
11 8 11 -5 0 -1 9 9 20 10 11 22 17 27 14 5 -4 22 6 38 21 25 24 29 25 38 10
9 -16 11 -16 31 4 11 11 26 21 31 21 6 0 10 6 10 13 0 8 9 22 20 32 11 10 20
24 20 30 0 7 7 19 16 26 13 11 15 26 11 77 -4 57 -3 65 14 69 17 5 24 21 20
46 -2 15 23 6 58 -20 29 -23 44 -27 88 -25 30 1 77 11 105 22 37 14 56 16 70
9 12 -6 24 -6 36 0 19 11 20 10 -61 31 -30 8 -74 10 -120 6 -57 -5 -77 -3 -95
9 -12 9 -22 22 -22 28 0 7 -9 20 -20 30 -27 23 -25 45 5 53 19 5 30 0 51 -25
19 -23 34 -31 59 -31 19 0 37 5 40 10 3 6 28 10 55 10 27 0 52 -4 55 -10 3 -5
1 -10 -6 -10 -7 0 -2 -11 11 -25 13 -14 28 -25 34 -25 6 0 23 -11 38 -25 51
-47 97 -43 98 10 0 11 10 25 23 30 17 8 22 18 20 43 -2 54 -24 69 -114 77 -84
8 -186 39 -159 49 8 3 53 2 100 -2 97 -10 130 -6 130 15 0 9 -6 13 -15 9 -9
-3 -15 0 -15 8 0 8 -9 16 -19 19 -13 3 -21 17 -26 48 -7 44 -26 120 -32 128
-1 2 -18 -3 -35 -12 -18 -9 -45 -18 -60 -21 -19 -4 -32 -17 -44 -46 -20 -46
-37 -53 -29 -12 5 26 5 26 -5 4 -12 -28 -34 -24 -38 6 -4 28 -59 59 -75 43 -6
-6 -13 -11 -16 -11 -4 0 -7 54 -8 119 -2 85 1 131 12 161 8 23 15 44 15 45 0
5 -39 13 -44 8z"/>
<path d="M3221 4206 c-31 -49 -25 -147 11 -185 30 -34 123 -22 174 22 l25 22
-21 47 c-11 26 -29 52 -40 58 -10 5 -32 23 -48 40 -41 41 -74 40 -101 -4z"/>
<path d="M2370 4000 c-8 -5 -25 -10 -37 -10 -13 0 -23 -4 -23 -9 0 -5 -16 -15
-35 -21 -19 -6 -33 -16 -30 -21 4 -5 -1 -9 -10 -9 -8 0 -23 -9 -32 -19 -9 -11
-21 -17 -28 -15 -6 3 -24 0 -39 -6 -27 -10 -27 -12 -21 -67 3 -32 9 -60 13
-63 4 -3 7 -16 6 -30 -1 -14 2 -35 7 -47 8 -21 14 -22 124 -22 64 -1 121 -3
126 -6 13 -8 11 19 -2 32 -8 8 -6 19 5 42 9 17 20 31 24 31 4 0 13 15 21 33 8
17 37 64 66 102 28 39 54 79 57 91 5 20 1 21 -86 22 -50 1 -98 -2 -106 -8z"/>
<path d="M4765 3834 c2 -24 0 -25 -26 -20 -21 4 -27 2 -23 -9 4 -10 0 -12 -17
-8 -13 4 -26 0 -33 -9 -6 -8 -19 -17 -28 -21 -10 -3 -18 -13 -18 -22 0 -17 17
-20 22 -4 3 9 13 9 40 0 39 -13 60 -48 62 -102 1 -16 3 -28 6 -26 3 2 20 9 38
16 29 12 32 17 32 57 0 24 -10 67 -23 96 -13 29 -22 59 -20 66 3 6 0 12 -5 12
-6 0 -9 -12 -7 -26z"/>
<path d="M3665 3730 c-47 -6 -51 -10 -15 -14 11 -1 15 -13 14 -48 0 -38 4 -49
18 -54 20 -6 26 -58 8 -69 -5 -3 -10 -17 -10 -30 0 -20 7 -24 43 -31 61 -11
88 -6 118 23 31 29 44 18 34 -27 -4 -19 -3 -30 4 -30 6 0 11 8 11 19 0 10 6
24 14 30 19 16 118 10 124 -6 2 -7 -4 -13 -12 -13 -9 0 -21 -12 -27 -27 -11
-29 -5 -58 10 -48 6 3 19 -4 30 -16 11 -12 24 -18 30 -15 5 4 12 2 16 -3 3 -6
11 -8 19 -5 7 3 37 -6 66 -20 30 -14 58 -22 63 -19 23 14 -35 167 -61 161 -9
-2 -91 21 -119 35 -13 6 -26 7 -30 4 -3 -4 -13 -1 -22 7 -9 7 -31 16 -49 19
-37 8 -56 23 -66 55 -4 12 -13 22 -21 22 -7 0 -15 7 -19 15 -3 8 -11 15 -18
15 -10 0 -10 -2 -1 -8 7 -4 19 -24 28 -44 15 -36 14 -38 -12 -62 -22 -21 -29
-23 -35 -11 -12 20 -14 83 -5 127 7 35 6 39 -25 58 -18 11 -37 19 -43 18 -5 0
-32 -4 -60 -8z"/>
<path d="M4434 3472 c5 -8 -3 -16 -23 -23 -35 -13 -40 -28 -11 -36 22 -6 26
-18 10 -28 -5 -3 -10 -11 -10 -16 0 -6 5 -7 10 -4 6 3 10 1 10 -4 0 -6 -4 -11
-10 -11 -5 0 -10 -8 -10 -17 1 -17 1 -17 11 0 5 9 17 17 25 17 8 0 13 4 10 9
-3 5 1 14 9 21 16 14 81 6 103 -12 9 -8 11 -7 6 5 -4 12 2 18 20 23 21 5 25
11 20 26 -4 14 0 21 15 25 32 8 25 23 -10 23 -26 0 -30 -3 -26 -19 3 -12 -1
-22 -9 -25 -8 -3 -14 0 -14 7 -1 7 -6 5 -14 -5 -22 -30 -35 -22 -26 18 7 29 6
34 -7 30 -8 -3 -19 -6 -24 -6 -6 0 -7 -4 -4 -10 10 -17 -17 -11 -38 8 -11 9
-17 11 -13 4z"/>
<path d="M1845 2930 c-3 -5 -11 -7 -17 -4 -7 5 -9 0 -5 -15 4 -18 3 -20 -9
-10 -11 9 -14 8 -14 -4 0 -38 14 -77 27 -77 12 0 13 -3 4 -14 -8 -10 -9 -16
-1 -21 6 -3 8 -10 5 -15 -3 -5 0 -12 5 -15 8 -5 6 -13 -6 -26 -15 -17 -15 -19
0 -25 9 -3 59 -1 110 5 124 15 279 15 270 0 -4 -7 2 -9 17 -7 20 2 23 -1 21
-19 -2 -12 1 -24 7 -27 5 -4 8 -27 5 -51 -2 -30 0 -45 8 -45 6 0 8 -3 5 -6 -4
-4 -13 -1 -22 6 -12 10 -15 10 -15 -4 0 -11 -9 -16 -30 -16 -21 0 -30 -5 -30
-16 0 -13 -8 -15 -40 -12 -28 2 -41 -1 -45 -11 -5 -11 -8 -11 -18 4 -10 13
-22 16 -48 12 -43 -7 -119 -36 -99 -38 8 -1 -5 -5 -30 -10 -25 -5 -51 -7 -58
-4 -7 3 -10 0 -7 -5 3 -6 -3 -10 -14 -10 -12 0 -21 4 -21 9 0 13 -37 20 -48 9
-12 -12 -91 -17 -98 -6 -3 4 -12 8 -21 8 -15 0 -15 -17 2 -80 5 -18 4 -21 -3
-11 -9 12 -17 12 -54 -2 -57 -22 -211 -110 -215 -124 -4 -10 206 -42 307 -47
40 -2 46 -5 55 -32 14 -41 47 -87 55 -77 3 4 19 38 34 74 17 41 38 74 57 88
l29 22 10 -27 c6 -15 8 -35 5 -44 -3 -10 -1 -21 5 -25 6 -4 10 5 10 22 1 22 3
25 10 12 6 -10 6 -28 0 -48 -5 -17 -7 -42 -4 -56 2 -14 0 -25 -6 -25 -12 0
-14 -37 -2 -44 18 -11 50 26 72 81 25 64 73 145 107 183 l23 25 0 -38 c0 -21
-7 -45 -15 -53 -8 -9 -15 -25 -15 -37 0 -18 6 -13 33 24 62 87 92 121 135 150
45 31 71 36 89 18 7 -7 27 6 68 45 32 30 75 62 96 72 32 14 38 21 33 37 -4 12
-2 17 4 13 6 -3 8 1 6 11 -4 13 4 22 25 31 22 10 28 18 24 35 -4 21 -4 21 11
3 13 -16 16 -17 21 -4 4 10 14 14 26 11 10 -3 19 -1 19 3 -1 13 -26 44 -36 44
-5 0 -10 16 -11 35 -3 28 1 35 16 35 10 0 21 -8 24 -19 4 -15 12 -18 43 -15
22 3 56 11 77 19 20 8 46 15 57 15 11 0 20 4 20 10 0 5 -24 8 -52 7 -45 -2
-53 1 -52 16 1 12 -6 17 -25 19 -67 4 -80 6 -123 23 -26 9 -52 15 -60 13 -7
-3 -24 -1 -38 5 -24 9 -62 14 -160 20 -25 2 -69 -3 -98 -10 -61 -15 -95 -17
-88 -4 3 4 17 6 31 3 14 -2 25 0 25 5 0 5 -24 9 -54 10 -43 0 -53 -2 -49 -13
4 -10 0 -12 -13 -7 -11 4 -15 3 -11 -4 4 -7 -15 -11 -53 -12 -33 0 -60 3 -60
7 0 5 -22 14 -50 22 -37 10 -50 19 -52 34 -3 23 -42 35 -53 16z"/>
<path d="M5838 2880 c-4 -14 -10 -68 -14 -120 -8 -116 8 -224 44 -298 26 -54
121 -167 122 -145 0 6 -4 13 -8 15 -17 7 -54 69 -49 83 3 7 -1 19 -9 26 -8 7
-13 18 -10 26 3 8 2 21 -4 31 -20 37 -54 212 -59 307 -4 65 -9 91 -13 75z"/>
<path d="M2 2793 c2 -22 13 -33 47 -50 25 -13 49 -27 55 -33 5 -5 16 -10 24
-10 15 0 61 -21 292 -132 302 -146 375 -183 378 -190 2 -4 9 -8 15 -8 6 0 41
-16 79 -35 50 -26 68 -32 68 -21 0 8 3 21 6 29 7 20 -76 70 -114 69 -41 -1
-83 18 -118 54 -29 30 -151 93 -439 228 -66 31 -128 61 -137 66 -25 14 -140
60 -150 60 -5 0 -8 -12 -6 -27z"/>
<path d="M340 2534 c0 -5 66 -43 148 -84 81 -41 154 -80 162 -86 8 -6 32 -17
53 -24 20 -6 37 -16 37 -21 0 -5 5 -9 11 -9 11 0 115 -50 228 -111 30 -15 58
-26 62 -23 5 3 9 0 9 -5 0 -6 7 -11 15 -11 22 0 18 15 -7 28 -13 6 -52 28 -88
48 -36 20 -90 50 -120 66 -30 16 -62 36 -70 43 -9 8 -27 12 -40 10 -14 -3 -19
-3 -13 1 18 8 -6 31 -40 39 -15 4 -31 13 -38 21 -6 8 -17 14 -23 14 -6 0 -22
9 -36 20 -14 11 -34 20 -44 20 -11 0 -28 8 -39 18 -11 9 -17 11 -13 5 10 -17
-13 -16 -44 2 -14 8 -36 15 -50 15 -20 0 -22 2 -10 10 13 8 13 10 -2 10 -9 0
-23 3 -32 6 -9 3 -16 2 -16 -2z"/>
<path d="M9611 2379 c-8 -18 -20 -29 -32 -29 -11 0 -18 -4 -15 -8 2 -4 -8 -22
-23 -39 -28 -32 -37 -51 -91 -188 -51 -130 -82 -204 -135 -320 -44 -96 -48
-107 -168 -540 -17 -60 -34 -112 -39 -115 -4 -3 -23 -102 -43 -220 -19 -118
-46 -276 -60 -350 -14 -74 -29 -169 -35 -210 -19 -141 -30 -205 -40 -240 -5
-19 -10 -54 -10 -77 0 -51 -4 -50 161 -27 486 67 940 319 1253 694 82 98 179
237 172 248 -3 5 1 26 9 47 12 36 13 37 17 15 4 -23 5 -22 22 15 16 34 45 135
46 157 0 5 -5 7 -11 5 -14 -3 -35 30 -25 40 4 4 14 -1 22 -12 13 -17 16 -18
24 -5 5 8 10 20 10 26 0 6 7 25 16 43 10 19 13 43 10 64 -4 21 -3 25 2 13 7
-17 10 -15 21 15 7 19 18 44 24 56 13 29 3 40 -18 20 -8 -9 -22 -14 -30 -11
-10 4 -12 0 -8 -15 3 -13 -2 -24 -15 -32 -16 -10 -18 -17 -11 -31 5 -10 8 -18
7 -19 -32 -8 -52 -6 -64 6 -17 16 -44 20 -44 6 0 -16 -41 -19 -68 -5 -15 8
-32 14 -38 14 -21 0 -35 25 -22 38 18 18 32 14 43 -10 7 -17 19 -23 43 -23 17
-1 32 3 32 8 0 5 14 7 30 5 17 -3 30 -1 30 4 0 4 7 8 15 8 20 0 19 16 -1 24
-8 3 -14 14 -13 23 2 30 -1 47 -8 40 -3 -4 -12 -2 -20 5 -10 8 -20 8 -41 -3
-15 -8 -30 -18 -34 -24 -4 -5 -10 -2 -14 8 -3 9 -12 17 -20 17 -8 0 -14 10
-14 25 0 20 -6 25 -35 31 -39 7 -53 -3 -76 -53 -13 -31 -39 -46 -39 -23 0 6 5
10 10 10 18 0 10 42 -12 59 -25 21 -17 41 16 41 12 0 27 5 34 12 13 13 16 39
5 36 -5 -1 -30 8 -57 20 -39 18 -52 20 -58 10 -26 -44 -26 -44 -45 -25 -11 10
-13 17 -5 17 20 0 14 26 -10 43 -19 13 -20 16 -5 16 9 1 17 -3 17 -7 0 -4 9
-8 20 -9 31 -3 24 25 -12 44 -47 26 -70 31 -95 22 -19 -7 -23 -5 -23 12 0 17
-4 19 -35 13 -31 -5 -35 -4 -41 20 -7 31 -24 34 -31 6 -3 -11 -9 -20 -13 -20
-5 0 -6 9 -3 21 7 24 -15 69 -33 69 -8 0 -12 11 -11 30 1 16 6 30 11 30 5 0 3
7 -4 15 -7 8 -23 15 -37 15 -22 0 -23 1 -9 16 22 21 20 38 -1 28 -26 -11 -64
-8 -73 6 -4 7 -13 9 -19 6 -6 -4 -11 -3 -11 3 0 5 8 12 18 14 13 4 13 5 -4 6
-13 1 -24 9 -27 21 -7 26 -27 26 -27 1 0 -26 -13 -33 -45 -25 -33 8 -27 28 9
32 22 3 25 6 16 17 -7 9 -23 12 -44 8 -19 -3 -36 -1 -40 6 -7 11 8 77 30 128
8 17 14 37 14 45 0 7 12 36 25 63 14 28 25 53 25 56 0 3 -13 6 -28 7 -21 0
-31 -6 -41 -29z"/>
<path d="M2365 490 c-3 -11 -14 -20 -23 -20 -9 0 -22 -12 -29 -26 -10 -22 -9
-29 3 -41 11 -12 18 -13 27 -4 6 6 19 11 28 11 19 0 33 37 15 43 -6 2 2 4 17
4 23 0 28 -3 24 -19 -4 -14 2 -22 21 -29 15 -6 36 -19 47 -29 11 -10 30 -21
43 -25 12 -3 27 -15 32 -26 7 -12 21 -19 38 -19 31 0 63 19 46 26 -6 3 -26 16
-45 30 -30 22 -34 23 -40 7 -4 -12 -8 -13 -13 -5 -4 7 -4 12 0 12 17 0 -36 44
-80 67 -27 14 -58 33 -69 44 -26 24 -34 24 -42 -1z"/>
<path d="M5955 330 c-6 -10 51 -41 165 -89 41 -17 111 -54 155 -81 146 -91
293 -160 339 -159 l41 0 -40 16 c-84 32 -243 113 -310 158 -38 25 -92 56 -120
69 -27 13 -84 40 -126 60 -81 38 -94 42 -104 26z"/>
<path d="M3715 221 c-71 -25 -122 -53 -107 -58 19 -7 4 -23 -21 -23 -30 0 -70
-29 -63 -46 3 -8 0 -11 -9 -7 -8 3 -12 9 -9 14 8 14 -28 10 -60 -6 -17 -9 -33
-12 -40 -6 -6 4 -33 11 -61 15 -27 4 -63 9 -80 12 -23 4 -26 3 -15 -5 8 -6 10
-11 5 -11 -6 0 -19 6 -30 14 -18 12 -200 53 -272 60 -26 3 -78 -17 -88 -35
-12 -18 -25 -9 -25 17 0 18 5 25 18 23 9 -1 26 0 37 0 19 2 19 3 -1 11 -18 7
-40 5 -99 -9 -15 -4 -20 -11 -7 -11 6 0 9 -7 6 -15 -4 -9 0 -15 10 -15 9 0 16
-7 16 -15 0 -8 -4 -15 -10 -15 -5 0 -10 -4 -10 -9 0 -5 10 -7 23 -4 l22 5 -22
-20 c-27 -24 -33 -78 -7 -68 9 3 19 6 24 6 5 0 11 13 15 30 4 16 11 33 17 36
7 5 8 2 3 -7 -8 -12 -6 -12 8 0 9 7 14 17 11 22 -3 5 1 9 8 9 17 -1 58 -35 58
-49 0 -6 12 -16 26 -22 26 -9 26 -10 8 -25 -18 -14 -17 -14 11 -12 26 3 30 7
33 38 6 84 20 100 46 52 l15 -27 1 25 c0 18 3 21 9 11 7 -11 9 -11 14 0 3 8 3
-6 0 -31 -8 -62 -43 -86 -43 -30 0 17 -4 30 -10 30 -8 0 -3 -58 7 -69 2 -3 36
1 75 7 51 8 74 8 79 0 4 -6 12 -7 20 -2 7 4 23 8 34 9 56 3 66 6 60 14 -15 25
55 33 106 13 37 -14 39 -17 23 -29 -15 -11 23 -13 230 -13 166 0 245 3 241 10
-4 6 -14 9 -23 8 -10 -2 -16 3 -14 11 9 43 -39 90 -60 58 -6 -9 -8 -9 -8 0 0
7 -8 12 -17 11 -46 -4 -72 4 -102 31 l-33 29 39 26 c20 14 45 26 55 26 24 0
48 11 48 21 0 15 -62 10 -115 -10z"/>
<path d="M5190 158 c-14 -5 -52 -7 -85 -4 -68 7 -187 -3 -180 -15 3 -4 -14 -9
-37 -11 -35 -2 -43 -7 -43 -23 0 -14 -12 -24 -40 -35 -31 -12 -41 -21 -43 -43
l-3 -27 365 0 c201 1 366 3 366 5 0 3 -33 26 -72 52 -40 25 -93 61 -117 79
-46 35 -69 40 -111 22z"/>
</g>
</svg>
